<svg xmlns="http://www.w3.org/2000/svg" version="1.1" xmlns:xlink="http://www.w3.org/1999/xlink" xmlns:svgjs="http://svgjs.com/svgjs" width="100" height="100"><svg xmlns="http://www.w3.org/2000/svg" width="100" height="100" viewBox="96 78 42 45" fill="none">
  <path d="M 134.049 83.885 L 104.089 83.885 C 103.558 83.887 103.036 84.025 102.574 84.286 C 102.111 84.547 101.725 84.924 101.451 85.379 C 101.177 85.836 101.027 86.353 101.012 86.885 C 100.997 87.415 101.119 87.942 101.368 88.411 L 104.366 94.085 L 98.931 94.085 C 98.402 94.085 97.895 94.295 97.52 94.67 C 97.146 95.045 96.934 95.552 96.934 96.083 C 96.933 96.407 97.012 96.728 97.166 97.015 L 106.803 115.256 C 106.925 115.488 107.093 115.694 107.294 115.86 C 107.497 116.028 107.73 116.154 107.981 116.232 C 108.23 116.309 108.493 116.335 108.755 116.311 C 109.017 116.287 109.27 116.211 109.501 116.089 C 109.857 115.902 110.149 115.611 110.334 115.256 L 112.954 110.33 L 116.24 116.551 C 116.503 117.046 116.896 117.458 117.375 117.745 C 117.854 118.033 118.402 118.185 118.961 118.185 C 119.522 118.185 120.069 118.033 120.549 117.745 C 121.028 117.458 121.419 117.046 121.683 116.551 L 136.702 88.318 C 136.951 87.86 137.077 87.345 137.066 86.824 C 137.056 86.302 136.91 85.793 136.642 85.345 C 136.374 84.898 135.993 84.527 135.54 84.271 C 135.085 84.015 134.571 83.882 134.049 83.885 Z M 120.596 95.958 L 114.12 108.148 C 113.954 108.459 113.673 108.692 113.337 108.796 C 112.999 108.9 112.635 108.867 112.323 108.703 C 112.085 108.581 111.891 108.386 111.769 108.148 L 105.354 96.028 C 105.191 95.716 105.157 95.352 105.261 95.016 C 105.365 94.68 105.598 94.397 105.909 94.232 C 106.098 94.131 106.311 94.078 106.525 94.078 L 119.454 94.078 C 119.797 94.08 120.124 94.217 120.365 94.459 C 120.607 94.703 120.744 95.031 120.742 95.373 C 120.745 95.582 120.693 95.789 120.596 95.974 L 120.596 95.958 Z" fill="#008080"></path>
</svg><style>@media (prefers-color-scheme: light) { :root { filter: none; } }
</style></svg>